<svg viewBox="0 0 20.7 14.6" id="tap" style="top: 264.64px; left: 104.55px; width: 96.9px; height: 61.2px; filter: opacity(0);"><path fill="#ccff00" d="M20.6,10.3V0.2H0.1v10.1l10.3,4.2L20.6,10.3z"></path><path fill="#222" d="M 4.95 9 L 4.95 4.37 L 3.27 4.37 L 3.27 3.31 L 7.87 3.31 L 7.87 4.37 L 6.16 4.37 L 6.16 9 Z M 9 9.07 Q 8.63 9.07 8.32 8.94 Q 8.01 8.81 7.79 8.53 Q 7.57 8.26 7.45 7.85 Q 7.34 7.45 7.34 6.91 Q 7.34 6.18 7.54 5.7 Q 7.75 5.22 8.13 4.98 Q 8.51 4.74 9 4.74 Q 9.33 4.74 9.59 4.84 Q 9.85 4.94 10.05 5.12 Q 10.24 5.3 10.33 5.54 L 10.39 5.54 L 10.44 4.82 L 11.54 4.82 L 11.54 9 L 10.39 9 L 10.39 8.27 L 10.33 8.27 Q 10.19 8.63 9.84 8.85 Q 9.49 9.07 9 9.07 Z M 9.44 8.14 Q 9.76 8.14 9.97 7.99 Q 10.17 7.85 10.28 7.61 Q 10.38 7.37 10.38 7.1 L 10.38 6.71 Q 10.38 6.43 10.28 6.2 Q 10.17 5.97 9.97 5.82 Q 9.76 5.67 9.44 5.67 Q 9.16 5.67 8.95 5.8 Q 8.74 5.93 8.62 6.21 Q 8.51 6.48 8.51 6.91 Q 8.51 7.32 8.62 7.6 Q 8.74 7.88 8.95 8.01 Q 9.16 8.14 9.44 8.14 Z M 12.61 10.3 L 12.61 4.82 L 13.72 4.82 L 13.76 5.54 L 13.82 5.54 Q 13.97 5.19 14.32 4.96 Q 14.67 4.74 15.15 4.74 Q 15.52 4.74 15.83 4.88 Q 16.14 5.01 16.36 5.29 Q 16.58 5.56 16.7 5.97 Q 16.83 6.37 16.83 6.91 Q 16.83 7.63 16.62 8.11 Q 16.4 8.59 16.03 8.84 Q 15.65 9.08 15.15 9.08 Q 14.83 9.08 14.56 8.98 Q 14.3 8.88 14.11 8.7 Q 13.92 8.52 13.82 8.27 L 13.76 8.27 L 13.76 10.3 Z M 14.72 8.15 Q 15 8.15 15.21 8.01 Q 15.42 7.88 15.53 7.6 Q 15.65 7.33 15.65 6.91 Q 15.65 6.48 15.53 6.21 Q 15.42 5.93 15.21 5.8 Q 15 5.67 14.72 5.67 Q 14.4 5.67 14.19 5.82 Q 13.98 5.97 13.88 6.2 Q 13.78 6.43 13.78 6.71 L 13.78 7.11 Q 13.78 7.32 13.83 7.5 Q 13.89 7.68 14 7.83 Q 14.12 7.97 14.3 8.06 Q 14.48 8.15 14.72 8.15 Z"></path></svg>
