<svg xmlns="http://www.w3.org/2000/svg" viewBox="0 0 20.64 14.34"><title>tap-label</title><path d="M22.14,18.42V8.34H1.6V18.42l10.27,4.15Z" transform="translate(-1.55 -8.29)" style="fill:#fffa8c;stroke:#000222;stroke-miterlimit:10;stroke-width:0.10000000149011612px"/><path d="M5.53,12.16v-.82H9.88v.82H8.2v4.63h-1V12.16Z" transform="translate(-1.55 -8.29)" style="fill:#000222"/><path d="M11.3,16.87a1.59,1.59,0,0,1-.7-.14,1.1,1.1,0,0,1-.49-.41,1.21,1.21,0,0,1-.18-.68,1.09,1.09,0,0,1,.13-.57.93.93,0,0,1,.35-.36,1.88,1.88,0,0,1,.5-.21,3.57,3.57,0,0,1,.57-.1l.59-.07a.67.67,0,0,0,.32-.1.22.22,0,0,0,.11-.2v0a.59.59,0,0,0-.18-.46.74.74,0,0,0-.52-.17,1,1,0,0,0-.56.16.81.81,0,0,0-.28.36l-.9-.12a1.51,1.51,0,0,1,.36-.63,1.54,1.54,0,0,1,.6-.38,2.56,2.56,0,0,1,1.37,0,1.65,1.65,0,0,1,.53.22,1.24,1.24,0,0,1,.39.43,1.4,1.4,0,0,1,.15.68v2.74h-.93v-.56h0a1.15,1.15,0,0,1-.64.55A1.6,1.6,0,0,1,11.3,16.87Zm.25-.71a1,1,0,0,0,.5-.11.77.77,0,0,0,.33-.31.79.79,0,0,0,.12-.42v-.48a.35.35,0,0,1-.15.07L12.1,15l-.26,0-.23,0a1.41,1.41,0,0,0-.38.1.54.54,0,0,0-.27.18.45.45,0,0,0-.1.31.47.47,0,0,0,.2.4A.83.83,0,0,0,11.55,16.16Z" transform="translate(-1.55 -8.29)" style="fill:#000222"/><path d="M14.43,18.32V12.7h1v.68h.06a1.75,1.75,0,0,1,.21-.32,1,1,0,0,1,.36-.29,1.32,1.32,0,0,1,.59-.12,1.57,1.57,0,0,1,.86.24,1.64,1.64,0,0,1,.61.71,2.65,2.65,0,0,1,.22,1.15,2.68,2.68,0,0,1-.22,1.15,1.69,1.69,0,0,1-.6.71,1.5,1.5,0,0,1-.86.25,1.44,1.44,0,0,1-.59-.11,1.36,1.36,0,0,1-.37-.29,1.7,1.7,0,0,1-.21-.31h0v2.17Zm1-3.57a2.08,2.08,0,0,0,.11.69,1,1,0,0,0,.33.46.76.76,0,0,0,.52.17.84.84,0,0,0,.53-.17,1,1,0,0,0,.33-.47,2.06,2.06,0,0,0,.11-.68,2,2,0,0,0-.11-.68,1,1,0,0,0-.32-.46.83.83,0,0,0-.54-.17.86.86,0,0,0-.53.16,1,1,0,0,0-.32.45A1.87,1.87,0,0,0,15.38,14.75Z" transform="translate(-1.55 -8.29)" style="fill:#000222"/></svg>